<?xml version="1.0" standalone="no"?><!DOCTYPE svg PUBLIC "-//W3C//DTD SVG 1.1//EN" "http://www.w3.org/Graphics/SVG/1.1/DTD/svg11.dtd"><svg t="1604666967321" class="icon" viewBox="0 0 1024 1024" version="1.1" xmlns="http://www.w3.org/2000/svg" p-id="1302" xmlns:xlink="http://www.w3.org/1999/xlink" width="200" height="200"><defs><style type="text/css"></style></defs><path d="M85.333333 170.666667h853.333334l-51.2 776.533333c0 42.666667-42.666667 76.8-85.333334 76.8H221.866667c-42.666667 0-85.333333-34.133333-85.333334-76.8L85.333333 170.666667z m93.866667 85.333333l42.666667 682.666667h580.266666l42.666667-682.666667H179.2z" fill="#202D39" p-id="1303"></path><path d="M341.333333 401.066667c0-25.6 17.066667-42.666667 42.666667-42.666667s42.666667 25.6 42.666667 42.666667v384c0 25.6-17.066667 42.666667-42.666667 42.666666S341.333333 810.666667 341.333333 785.066667V401.066667zM597.333333 401.066667c0-25.6 17.066667-42.666667 42.666667-42.666667s42.666667 25.6 42.666667 42.666667v384c0 25.6-17.066667 42.666667-42.666667 42.666666S597.333333 810.666667 597.333333 785.066667V401.066667z" fill="#CB0000" p-id="1304"></path><path d="M384 85.333333C358.4 85.333333 341.333333 68.266667 341.333333 42.666667s17.066667-42.666667 42.666667-42.666667h256c25.6 0 42.666667 17.066667 42.666667 42.666667s-17.066667 42.666667-42.666667 42.666666h-256zM85.333333 256c-25.6 0-42.666667-17.066667-42.666666-42.666667S59.733333 170.666667 85.333333 170.666667h853.333334c25.6 0 42.666667 17.066667 42.666666 42.666666s-17.066667 42.666667-42.666666 42.666667H85.333333z" fill="#202D39" p-id="1305"></path></svg>