<?xml version="1.0" standalone="no"?><!DOCTYPE svg PUBLIC "-//W3C//DTD SVG 1.1//EN" "http://www.w3.org/Graphics/SVG/1.1/DTD/svg11.dtd"><svg t="1604740176083" class="icon" viewBox="0 0 1024 1024" version="1.1" xmlns="http://www.w3.org/2000/svg" p-id="5663" xmlns:xlink="http://www.w3.org/1999/xlink" width="200" height="200"><defs><style type="text/css"></style></defs><path d="M42.666667 256c0-117.76 95.658667-213.333333 213.333333-213.333333 117.76 0 213.333333 95.658667 213.333333 213.333333v128.128C469.333333 431.146667 430.933333 469.333333 384.128 469.333333H256c-117.76 0-213.333333-95.658667-213.333333-213.333333z m341.333333 0c0-70.570667-57.386667-128-128-128-70.570667 0-128 57.386667-128 128 0 70.570667 57.386667 128 128 128h128V256zM42.666667 768c0-117.76 95.658667-213.333333 213.333333-213.333333h128.128c47.018667 0 85.205333 38.4 85.205333 85.205333V768c0 117.76-95.658667 213.333333-213.333333 213.333333-117.76 0-213.333333-95.658667-213.333333-213.333333z m213.333333-128c-70.570667 0-128 57.386667-128 128 0 70.570667 57.386667 128 128 128 70.570667 0 128-57.386667 128-128v-128H256zM554.666667 256c0-117.76 95.658667-213.333333 213.333333-213.333333 117.76 0 213.333333 95.658667 213.333333 213.333333 0 117.76-95.658667 213.333333-213.333333 213.333333h-128.128C592.853333 469.333333 554.666667 430.933333 554.666667 384.128V256z m213.333333 128c70.570667 0 128-57.386667 128-128 0-70.570667-57.386667-128-128-128-70.570667 0-128 57.386667-128 128v128h128zM768 640a128 128 0 1 1-128 128v-157.44a42.666667 42.666667 0 0 0-85.333333 0V768a213.333333 213.333333 0 1 0 213.333333-213.333333 42.666667 42.666667 0 0 0 0 85.333333z" p-id="5664"></path></svg>