<?xml version="1.0" standalone="no"?><!DOCTYPE svg PUBLIC "-//W3C//DTD SVG 1.1//EN" "http://www.w3.org/Graphics/SVG/1.1/DTD/svg11.dtd"><svg t="1604669328800" class="icon" viewBox="0 0 1024 1024" version="1.1" xmlns="http://www.w3.org/2000/svg" p-id="5442" width="300" height="300" xmlns:xlink="http://www.w3.org/1999/xlink"><defs><style type="text/css"></style></defs><path d="M918.714182 795.345455h-90.856727a23.272727 23.272727 0 0 1-23.272728-23.272728v-104.727272H214.970182v104.727272a23.272727 23.272727 0 0 1-23.272727 23.272728H100.840727c-50.408727 0-91.438545-41.751273-91.438545-93.09091v-465.454545c0-51.339636 41.029818-93.090909 91.438545-93.090909h817.873455c50.408727 0 91.438545 41.751273 91.438545 93.090909v465.454545c-0.023273 51.316364-41.029818 93.090909-91.438545 93.09091z m-67.607273-46.545455h67.584c24.738909 0 44.893091-20.875636 44.893091-46.545455v-465.454545c0-25.669818-20.130909-46.545455-44.893091-46.545455H100.840727c-24.738909 0-44.893091 20.875636-44.893091 46.545455v465.454545c0 25.669818 20.130909 46.545455 44.893091 46.545455h67.584v-104.727273a23.272727 23.272727 0 0 1 23.272728-23.272727h636.136727a23.272727 23.272727 0 0 1 23.272727 23.272727v104.727273z" fill="#1296db" p-id="5443"></path><path d="M754.129455 760.436364h-488.727273a23.272727 23.272727 0 1 1 0-46.545455h488.727273a23.272727 23.272727 0 1 1 0 46.545455zM265.402182 946.618182a23.272727 23.272727 0 0 1-23.272727-23.272727v-93.09091a23.272727 23.272727 0 1 1 46.545454 0v93.09091a23.272727 23.272727 0 0 1-23.272727 23.272727zM387.584 946.618182a23.272727 23.272727 0 0 1-23.272727-23.272727v-93.09091a23.272727 23.272727 0 1 1 46.545454 0v93.09091a23.272727 23.272727 0 0 1-23.272727 23.272727zM631.947636 946.618182a23.272727 23.272727 0 0 1-23.272727-23.272727v-93.09091a23.272727 23.272727 0 1 1 46.545455 0v93.09091a23.272727 23.272727 0 0 1-23.272728 23.272727zM509.765818 946.618182a23.272727 23.272727 0 0 1-23.272727-23.272727v-93.09091a23.272727 23.272727 0 1 1 46.545454 0v93.09091a23.272727 23.272727 0 0 1-23.272727 23.272727zM754.129455 946.618182a23.272727 23.272727 0 0 1-23.272728-23.272727v-93.09091a23.272727 23.272727 0 1 1 46.545455 0v93.09091a23.272727 23.272727 0 0 1-23.272727 23.272727zM218.856727 294.981818h-139.636363a23.272727 23.272727 0 1 1 0-46.545454h139.636363a23.272727 23.272727 0 1 1 0 46.545454zM358.493091 294.981818h-69.818182a23.272727 23.272727 0 1 1 0-46.545454h69.818182a23.272727 23.272727 0 1 1 0 46.545454zM893.765818 294.981818h-46.545454a23.272727 23.272727 0 1 1 0-46.545454h46.545454a23.272727 23.272727 0 1 1 0 46.545454z" fill="#1296db" p-id="5444"></path></svg>