<?xml version="1.0" standalone="no"?><!DOCTYPE svg PUBLIC "-//W3C//DTD SVG 1.1//EN" "http://www.w3.org/Graphics/SVG/1.1/DTD/svg11.dtd"><svg t="1604740054076" class="icon" viewBox="0 0 1024 1024" version="1.1" xmlns="http://www.w3.org/2000/svg" p-id="4744" width="200" height="200" xmlns:xlink="http://www.w3.org/1999/xlink"><defs><style type="text/css"></style></defs><path d="M1000.6528 417.792c-5.12-28.4672-22.528-46.4896-43.4176-46.08h-4.3008a129.7408 129.7408 0 0 1-130.048-129.024 148.48 148.48 0 0 1 11.264-49.3568A58.112 58.112 0 0 0 814.08 122.88l-1.2288-0.8192-124.7232-69.2224-1.2288-0.6144a59.2896 59.2896 0 0 0-24.1664-5.12 65.5872 65.5872 0 0 0-46.6944 18.8416c-15.36 15.36-63.488 56.32-102.4 56.32S425.984 80.896 410.624 64.9216A65.6896 65.6896 0 0 0 363.52 46.08a61.44 61.44 0 0 0-23.7568 4.7104l-1.4336 0.6144L209.1008 121.856l-1.2288 1.024a58.1632 58.1632 0 0 0-19.8656 70.4512 143.36 143.36 0 0 1 11.264 49.3568 129.7408 129.7408 0 0 1-130.048 129.024h-4.3008c-20.8896-0.4096-37.888 17.8176-43.4176 46.08a628.224 628.224 0 0 0-10.24 97.28 628.224 628.224 0 0 0 10.24 97.28c5.12 28.0576 22.1184 46.08 42.5984 46.08h5.12a129.6384 129.6384 0 0 1 130.048 129.024 148.48 148.48 0 0 1-11.264 49.3568 58.112 58.112 0 0 0 19.8656 70.656l1.2288 0.8192 122.88 68.1984 1.2288 0.4096a59.0336 59.0336 0 0 0 23.9616 5.12 64.4096 64.4096 0 0 0 46.8992-19.6608c14.336-15.36 64.3072-59.8016 104.448-59.8016s89.7024 44.032 105.2672 61.0304a64.7168 64.7168 0 0 0 47.3088 19.8656 59.6992 59.6992 0 0 0 23.552-4.7104l1.4336-0.8192 127.1808-69.8368 1.2288-0.8192a58.1632 58.1632 0 0 0 19.8656-70.4512 143.36 143.36 0 0 1-11.264-49.3568 129.7408 129.7408 0 0 1 130.048-129.024h4.3008c20.8896 0.4096 38.0928-17.8176 43.4176-46.08a628.224 628.224 0 0 0 10.24-97.28 627.7632 627.7632 0 0 0-10.4448-97.28z m-57.7536 182.6816a188.2624 188.2624 0 0 0-179.2 187.1872 197.632 197.632 0 0 0 15.9744 72.0896l-118.784 65.1264a8.1408 8.1408 0 0 1-3.8912-1.024 327.68 327.68 0 0 0-44.032-38.912c-37.0688-27.2384-72.0896-40.96-104.448-40.96s-66.9696 13.312-104.0384 40.1408a319.8976 319.8976 0 0 0-43.8272 38.2976 7.424 7.424 0 0 1-3.8912 1.024L242.2784 860.16a199.0656 199.0656 0 0 0 15.9744-72.2944 188.2624 188.2624 0 0 0-179.2-187.1872 564.8384 564.8384 0 0 1-9.216-85.1968A561.3568 561.3568 0 0 1 79.2576 430.08a188.2624 188.2624 0 0 0 179.2-187.1872 198.8096 198.8096 0 0 0-15.9744-72.0896L363.52 104.8576a9.1648 9.1648 0 0 1 4.5056 1.2288 334.2848 334.2848 0 0 0 43.4176 36.6592c36.2496 25.6 70.4512 38.7072 101.9904 38.7072S578.56 168.96 614.8096 143.36a327.68 327.68 0 0 0 43.2128-35.84 9.1648 9.1648 0 0 1 4.5056-1.2288h0.4096l116.736 64.512a198.8096 198.8096 0 0 0-15.9744 72.0896 188.2624 188.2624 0 0 0 179.2 187.1872 564.8384 564.8384 0 0 1 9.216 85.1968 548.7104 548.7104 0 0 1-9.216 85.1968z" fill="#13227a" p-id="4745"></path><path d="M508.928 342.6304a171.8272 171.8272 0 1 0 173.056 171.8272 172.5952 172.5952 0 0 0-173.056-171.8272z m0 285.2864a113.4592 113.4592 0 1 1 114.2784-113.4592 114.0224 114.0224 0 0 1-114.2784 113.4592z" fill="#13227a" p-id="4746"></path></svg>